<mxfile host="65bd71144e">
    <diagram id="psPoXiELfYTcDK63vBD2" name="Page-1">
        <mxGraphModel dx="843" dy="779" grid="1" gridSize="10" guides="1" tooltips="1" connect="1" arrows="1" fold="1" page="1" pageScale="1" pageWidth="850" pageHeight="1100" background="#FFFFFF" math="0" shadow="0">
            <root>
                <mxCell id="0"/>
                <mxCell id="1" parent="0"/>
                <mxCell id="10" style="edgeStyle=none;html=1;startArrow=classic;startFill=1;fillColor=#e1d5e7;strokeColor=#9673a6;strokeWidth=2;" edge="1" parent="1">
                    <mxGeometry relative="1" as="geometry">
                        <mxPoint x="421" y="445" as="targetPoint"/>
                        <mxPoint x="241" y="445" as="sourcePoint"/>
                    </mxGeometry>
                </mxCell>
                <mxCell id="2" value="" style="image;aspect=fixed;html=1;points=[];align=center;fontSize=12;image=img/lib/azure2/compute/Function_Apps.svg;" vertex="1" parent="1">
                    <mxGeometry x="143" y="440" width="68" height="60" as="geometry"/>
                </mxCell>
                <mxCell id="13" style="edgeStyle=none;html=1;fillColor=#e1d5e7;strokeColor=#9673a6;strokeWidth=2;startArrow=classic;startFill=1;" edge="1" parent="1">
                    <mxGeometry relative="1" as="geometry">
                        <mxPoint x="454" y="354" as="targetPoint"/>
                        <mxPoint x="454" y="410" as="sourcePoint"/>
                    </mxGeometry>
                </mxCell>
                <mxCell id="3" value="" style="image;aspect=fixed;html=1;points=[];align=center;fontSize=12;image=img/lib/azure2/compute/Function_Apps.svg;" vertex="1" parent="1">
                    <mxGeometry x="431.46999999999997" y="422" width="45.33" height="40" as="geometry"/>
                </mxCell>
                <mxCell id="4" value=".../Dashboard" style="image;aspect=fixed;html=1;points=[];align=center;fontSize=12;image=img/lib/azure2/general/Browser.svg;" vertex="1" parent="1">
                    <mxGeometry x="145" y="210" width="65" height="52" as="geometry"/>
                </mxCell>
                <mxCell id="5" value="Key Vault" style="image;aspect=fixed;html=1;points=[];align=center;fontSize=12;image=img/lib/azure2/security/Key_Vaults.svg;" vertex="1" parent="1">
                    <mxGeometry x="152" y="680" width="60" height="60" as="geometry"/>
                </mxCell>
                <mxCell id="7" value="" style="image;aspect=fixed;html=1;points=[];align=center;fontSize=12;image=img/lib/azure2/app_services/App_Services.svg;" vertex="1" parent="1">
                    <mxGeometry x="395" y="222" width="50" height="50" as="geometry"/>
                </mxCell>
                <mxCell id="8" value="" style="shape=image;verticalLabelPosition=bottom;labelBackgroundColor=default;verticalAlign=top;aspect=fixed;imageAspect=0;image=data:image/jpeg,/9j/4AAQSkZJRgABAQEAAAAAAAD/4QAuRXhpZgAATU0AKgAAAAgAAkAAAAMAAAABALEAAEABAAEAAAABAAAAAAAAAAD/2wBDAAoHBwkHBgoJCAkLCwoMDxkQDw4ODx4WFxIZJCAmJSMgIyIoLTkwKCo2KyIjMkQyNjs9QEBAJjBGS0U+Sjk/QD3/2wBDAQsLCw8NDx0QEB09KSMpPT09PT09PT09PT09PT09PT09PT09PT09PT09PT09PT09PT09PT09PT09PT09PT09PT3/wAARCABSAdoDASIAAhEBAxEB/8QAHwAAAQUBAQEBAQEAAAAAAAAAAAECAwQFBgcICQoL/8QAtRAAAgEDAwIEAwUFBAQAAAF9AQIDAAQRBRIhMUEGE1FhByJxFDKBkaEII0KxwRVS0fAkM2JyggkKFhcYGRolJicoKSo0NTY3ODk6Q0RFRkdISUpTVFVWV1hZWmNkZWZnaGlqc3R1dnd4eXqDhIWGh4iJipKTlJWWl5iZmqKjpKWmp6ipqrKztLW2t7i5usLDxMXGx8jJytLT1NXW19jZ2uHi4+Tl5ufo6erx8vP09fb3+Pn6/8QAHwEAAwEBAQEBAQEBAQAAAAAAAAECAwQFBgcICQoL/8QAtREAAgECBAQDBAcFBAQAAQJ3AAECAxEEBSExBhJBUQdhcRMiMoEIFEKRobHBCSMzUvAVYnLRChYkNOEl8RcYGRomJygpKjU2Nzg5OkNERUZHSElKU1RVVldYWVpjZGVmZ2hpanN0dXZ3eHl6goOEhYaHiImKkpOUlZaXmJmaoqOkpaanqKmqsrO0tba3uLm6wsPExcbHyMnK0tPU1dbX2Nna4uPk5ebn6Onq8vP09fb3+Pn6/9oADAMBAAIRAxEAPwD2WiiigAPWsvxFcS2mh3M1u22RQMHAPf3rUNY/iv8A5Fu6+g/9CFXSSc0n3M6ztTl6HndxfXF0SZpS5PXgD+QrtvAn/IGl/wCux/kK4Gu+8C/8gWX/AK7H+Qr1cakqNl3PIwLbrXfY6aiiivHPbCiiigAooooAKKKKACiiigAooooAKKKKACiiigAooooAKKKKACiiigAooooAKKKKACiiigAooooAKKKKACiiigAooooA5DxHfXEeqPFHJiMKMLgVlWTs+pWxJyfMX+dXvEv/ACGpP91f5VRsP+Qhbf8AXRf518vXbeJabvqfRUIxWHul0/Q9EHQUUDpRX1CPnQooooAKKKKACiiigAooooAKKKKACiiigAooooAQ1lan4i0/SyUmm3S/880G4/8A1vxqn4s1xtLtVgtzi5mzhv7i9zXnxJJLMSWY5JJzmu3DYT2i5pbHBisZ7N8sdWdsfH1tnizmI9Sw/lUOr+KLHVdCuYELxzsBhHHXkdCK5OK3lmz5MUkmOuxScUySN4n2yIyN6OMfzrsWEpJq2613OJ4us009U/IbXfeBP+QNL/12P8hXA133gT/kDS/9dj/IUsb/AAvmPA/xl6HS9qytS8R6fphKTTb5R1jjG4j/AA/Gsfxd4ge2P2CzcrIRmRx1UHoB7muJ9T68knvXLh8H7Rc0nZHViMbyNxgrs7hvH1sD8tnMR6kgVbtPGmm3LhJDJAx7yDj8xXBxWVzcIXht5pE/vKhIqEgglWBDA4IIxiup4Oi9Fv6nMsbWTu9vQ9gjkWVA8bBkYZBByDTs15r4e1+TR7lUdma0c4dCfue4r0hHDxhlIKkZBFebXoOlKz2PSoYhVo3W6Mq78T6XZllkug7qcFYwWOfwrPk8eWQP7u2uH98AVxd9/wAhC5/66t/Ooo4pJXCRozsf4VGa9CGCpct5XZ508dVcmo6HaDx9b55s5gP94GtXTfEun6o4jjkKSn/lnIME/T1rzqa0ubZA09vNGp6M6ECoRkEEEgg5BHGKbwVKS93QUcdVi/e1PUNR1/T9MJW4uB5g/wCWa/M35CshvHtmDhbW4I9eB/WuGJJJJJLMckk5zUr206RiRoJVjxncUIFKOBppe87scsdVk7xVkd9Z+MtMuXCOzwMTx5i4H51vKwdQykEHuK8drrfBWrOs7adM5aNgWiyc7SOo+nescRg1CLnDob4bGuclCZ234VHPcRW0JlnkWNFHLMcAUXFxHa27zysFjjXcxPYV5lrWtXGs3RdyVgB/dxZ+79fU1zYfDus+yOnEYhUV3bOuufHGnwsVhSWfH8SrgfrUEfj21J+e0mUeoINcTFFJcSCOGNpJD0VBkmpbixurUA3NtNEpOAzKQK9FYSivde/qec8bWeq29D0vTtbsdUX/AEWYFx1Q8MPwrRrx2OR4ZFlhdkkU5VlOCK9J8Naz/a9hukwJ4vlkA7+/41x4nC+y96LujswuL9q+WSsy1fazY6cwW6uUjcjcFPUj6VlS+ONMjz5azy+4TGfzrC8c/wDIfT/r3X/0Jq52tqGDhOClK+phXxtSM3GNtDuT49te1pOfxH+NTQeONNlYLKs0Oe7LkfpXEDTb1xuFnOV658s1XIIJBBBBwQRjFbfU6MtF+Zl9drLV/keu211DeQiW3kWWM9GU5qavLdE1eXSL5JFY+QxAlTsR6/UV6ejK8YZSCpGQRXnYig6MrdD0cNiFWjfqhxOO9Y2o+KtNsHMbSGWQfwxjd+vSsTxb4icStp9m5ULxK4POf7orkOBXRQwfMlKfU5sRjXFuMDt/+E+t8/8AHnNj1yKv2Xi/TLxxG0jQOeglGAfx6Vwf9mX3l+Z9jn8vH3vLNVeuQfoQa6Hg6MlaP5nOsbWjrL8j2IENyORS9K4jwfrzx3C6ddOWjf8A1LMeVP8Ad+npXQ+Ib97HT/3RxJKdoPp715GLX1ZNy6Hr4WX1myjuyW91yzsCUkk3SD+BOT/9as8+L4c/LayEepIrleTkkkknknnNWIbC7uU3wW0si+oHWvnpZlXqP3F+Fz344CjBe+/xsdLF4ttWOJIZUHrwa1bLUbbUEZreTdt6jHIrhZdPvIRmS1lUDqdua6fwtB5WmmQjmRifw6V14PFV6lXkmtLdjlxeGo06fNB6+pjeJf8AkNSf7q/yrNtnENzFK2dqOGOOelaXiX/kNSf7q/yrKrysS3GvJruenh1ehFPsdU/i6Afct5WHqcCnw+LLRyBJHJH7kZ/lXLLZ3LpuWCVl9QhqLkMQQQQcEHjFdH9oYiOr/I5/qOHkrL8z0aC4iuohJC4dfUGpq4HStRfTrxXBPlMcSL7ev1Fd4rAqD2xmvXwmKWIhfZrc8vFYZ0JW6PYXpWVeeIrK0YoHMrjqEGf1rH8Q6y80zWlsxWNeHYH7x9KwOlceKzJwk4U18zrw2XqcVOo9+h1X/CYQ5/49pMeuRVy18SWV0QjMYnPQOMZ/GuOFrOY94hlK4zkIairkjmOIg05beh0vL6ElaOnzPTFYMMg5FIzqiszEAAZJPauQ8P6y1tMttOxML8KSfuGunv8A/jwn/wCuZ/lXs0MVGtTc47o8qth5UqihLqVJfEmnRf8ALYv/ALik1VfxdaD7kMzfUAVyI+6PpTlR3OERnP8AsjNePLM68vh0PVjl1GPxXZ1S+L7Yn5oJQPwNaFnrdlekLHMA5/hYYNcO8MsWDJE6A92Uimf05FOGZ1oP31f8BSy+jJe5p+J6ZmjNcv4e1t3kFrdPuJ/1bnv7GunzXtUK8a8OaJ5FajKjLlkeW69fnUtWknP3QFVR6DH+JNQ6ZZ/2hqdva5IEj4JHp1P6A1VfO856962PCRUeJLbPcMB/3ya+ml+7pPl6I+Xh+8qLm6vU9Ft7aG0gWKCNURRgKBWX4rijbw9dMyKWUAqSOnIrarK8SRSTaBdxxKzyMowqjJPIrxKTftE2+p71WK9m0l0PMK7vwVIItAuJD0WRifwFcdcabe2qb7i0mjT+8yHArqPDm7/hENQ29f3mP++a9TFtSp6PqjyMIpRq3a6M5G5na7uZbhyS0jFsn36Vo+HNMXVdXSKUEwoPMceoHb88VlD7o+ldZ4Cx9su/72xf5mta7cKT5exnQip1VzdWdrHGkUYRFCqBgADgVzHjXSo5bD7dGgE0P3yP4l75+nWuqrL8SY/4R693dPLNePQm41E13ParwUqbR5fXovg67N1oKo5JaBjHk+nUfocfhXnVdv4Bz9hu/TzBj8q9PGpOlfszysC2qtu6OQvv+Qhc/wDXVv51s+Cf+Q//ANsm/nWNff8AIQuf+urfzrZ8Ef8AIf8A+2TfzrWt/AfoZ0f469Tv5oY7iJo5UDIwwQRkGvJ723+yX9xb9o5GUZ9Af8K9cryvXv8AkP33/XU1xZe3zNeR25jFcqfmWvCJUeIoQ6hgysoBGccZ/pXpDIrgqwBU9QR1rzXwn/yMlr/wL+VemVGO/iL0Ly/+G/U8s16zWw1u5gjXagbcqjoAeaZochi1yxcHGJlB+h4q94x/5GWb/rmn8jWdpP8AyFrP/rsn869CLcqKv1R5sko12l0Z1/jq9MVhDaKeZmy30H/1yK4U8ZNdX4+z9ttPTYf51ylTg4pUlbqXjW3Vd+h6L4btrTTtLiJkhE8qh5GLjPPatSaWyuYXillgdHGGBccivJuKSsZYLmk5OWptDHcsVFR0LWoWy2moTwIwaNHIU5zx2rZ8E3Ji1ww5+WaM5HuOf8a53IrY8Jn/AIqO2x6Nn8q6Ky/ctPsc1CX75Ndy345/5D6f9e6/+hNXPxf66P8A3h/Oug8c/wDIfT/r3X/0Jq5+L/XR/wC8P50sP/BXoPEfxpep6+g+QfSuO8c2EaLBeIiqxbY5A6jtXYp9wfSuc8c4/sRPaVf615eGk1WVj1sVFOizgK9I0y+8nwjFdtz5Vvn644/pXm9dtHn/AIVucZz5R6f71ehjIqSin3POwUnFyt2ucWztK7O5JdjuYnuTXR+DrO2kupbu6aPEWFjDkfe7nmuaoOO9dFWDnDlTtc5qdTknzNXseu/bbb/n4i/77FcP4ytLaO6hubZo8zZDhCOT2PFczS5Fc1HC+ylzKR01sX7WHLyjopGgmjkU4ZGDAjtiu98U5m0+0nUfKTz+Irz9yMH6V6pFape6JBBOOHhXOOxxXJnFL2tLlW7udmT1XSquT2Vjg/Wut0jX7Q20cExELqoHP3Tj0NYl/od3YknYZIuzpz+YrNr4qlUq4Sb0PsqlOnioLX5o9KV1kUFSGB7inKABgAAV55a39zYsGt5mUf3Tyv5V2OjauupwkEBZk++v9R7V7WFx0K75bWZ5GIwc6K5t0c54m/5DUn+6v8qzrX/j9g/66r/6EK0fEv8AyGpP91f5VnWn/H7b/wDXVP8A0IV4lf8A3h+p7FD/AHden6Ho2Olcr4stUjlhnVQC+VbA69x/WurFc94v/wCPS3/66f0r3MdFPDyPFwTarKxyZ7124vDD4aW4/iEI598Y/nXEV1V1n/hClx/cX+deTgJuCqNdj1MbFScE+9jluTyeSeSTW14Z05bu5eeZQyRY2g8/NWNXV+EcfYJfXzOfyqMBBVK65vUvGzcKLt6G/gVyXiiwSCZLmJQokOGA4GfWuurC8WAf2UuevmDH617WOpxlQlfoeRg5uNaNupx9dvb3Bu/Dfmt94wkN9a4qus0jP/CLSZ/uvj9a8nLZNSkujR6eYRTjF9UzkR90fSuo8H/cuvqv9a5cfdH0rqPB/wBy6+q/1qMv/wB4j8zTH/wH8jopIklQo6hgR0Irh9b08afflUGInG5B6eoruq5nxfj/AEY/xZb+lermVKMqLl1R5mAqSjWUVszm1kMTrIhwyncD6Yrr/wC3F9q46p/m968OjiJUk7HsVsPCs05dCnr9g2navJER8rAMh9Rjn9c1UtLp7K8huY/vxMGA9fX8+legeJtDGr2YaLAuYgShP8Q/u153NDJbStFMhjkU8qwr9Iw9aNWnZ77M/O8TRlRndbbpnqenara6pbrLbyqcjlSeVPoRWDruuTi6e2tXMaxnDMOpNcfYXP2TULe4yQI5FY4PUA81v61bNDfPMPmgnPmRuOhB/rXzmd0p4emnTbs3v2PoclqwxM2qlrpaeYltrN7byBjM0qHhkkOQw79a6vS7S0+wO1qmyG6y5XsMjmuHVWkcIilnY8KO9d/pdq1np0MEhBZFwceteflVaq3JNto9HMqVJJNJXPLru2azvJbZxho3K/4fpirvh7VBpGrJM+fKcbJPYHv+BrpvFvh570C9s03TqMOg6uPb3FcNyCQQQQcEEYxX2dKpGvTs/mfGVacsPUuvVHr0U8U8ayxSK6EZDKcg1yvjPWYvsn9nwPvkcgybT0A5x9TxXGJJJGCEkdQeoDEU2sqeCUJ8zd7G1XHOcOVK3cK9F8HWZtdCR2GGnYyYPp0H6DP41yWgaBLrFyrupW0U5dzxu9h9a9JRFjjCKMKowBWeOrJpU18zTAUZa1JbdDya+/5CFz/11b+dbPgj/kP/APbJv51jX3/IQuf+urfzrZ8E/wDIf/7ZN/Ouqt/AfoctH+OvU9DryzXv+Q/ff9dTXqdeWa9/yH77/rqa4sv+N+h3Zj8C9Sfwn/yMlr/wL+VemV5n4T/5GS1/4F/KvTKnH/xF6FZd/Dfqeb+Mf+Rlm/65p/I1naX/AMhaz/67L/OtHxj/AMjLN/1zT+RrO0v/AJC1n/12X+dehT/gL0POqfx36nWePLVntLa5UcRMVb6Hp+o/WuIPORXrl5aRX1nLbzDKSLtNeZatpFxpF00Uykxk/JKBww/x9q58DWXLyM6cdRkpe0Wz3Ow8Ma9b3dlFazusdxEoXDHG8DuP8K6L5PQV49UwubgDC3EwHoJCKKmA5pXi7Cp4/lilJXsesSSwwoWkeNFA6sQKWCWKeJZYWV42GVZeQa8id2k5dmc/7RzXofgybzfD8a55jZk/XP8AWuavhfYw5r3OrD4tVp8trHO+Of8AkPp/17r/AOhNXPxf66P/AHh/Oug8c/8AIfT/AK91/wDQmrn4v9dH/vD+dehh/wCCvQ83Efxpep7An3B9K5zxz/yBE/67L/WujT7g+lc545/5Ai/9dl/rXk4f+LH1PYxH8GXoef16Fo1t9r8Fxwd5InX8cmvPa9M8Kf8AItWf+6f5mvRxztCL8zzcArza8jzTBGQQQQcEHjFb/hPWotMupIbkhYJsHeeisPX2NW/Fnh54p3v7NC8bndKijlT6/wCNcpWqlDEU/wCtDFxnh6np+J7BHJDMgeNkdT0KkEU47BydoFeQRyyxf6uR0/3WIpXuJpOHmlYe7k1y/wBnu/xHZ/aCt8J6xDdW08rxRSxvIg+ZVIJFPluIbfb5sipuOF3HGTXCeBpvK1t4sgCWI4HuOf8AGtfxfMDJbw+gLkfp/jXmZi/qib3senl/+1NLa50wZXHBBFUb7RrO+BMkYV+zLwa4iO5niGI5pEHorGpG1C7YbWuZiPTea8WWZ05xtOFz145dUg7xlYiuIhBcSRhg4Riob1xWn4ZYprSKDwyMD/Osiuk8Laa4la8kUquNseR1964cHFzxEeVdb/I7cVJQoPme6t8yl4l/5DUn+6v8qzrT/j9t/wDrqn/oQrR8S/8AIak/3V/lWdaf8ftv/wBdU/8AQhSr/wC8P1HR/wB3XoejVz/i7/jzg/66f0roK5/xd/x5wf8AXT+le/jf93l6HiYT+PE5Ou1trb7X4YSHu8OB9f8A9dcVXfaJ/wAge2/3BXk5WuaUk9mj0syfLGL6pnBEEEgggg4IPatnw5qa2Ny8MzBYpccn+Fv/AK9WPEWiukrXlspZG5kUDofWudrnkp4Stftt5o6Iyp4qlbv+DPSRIhXduBHrXJeJtTju5UghYMkZyxB4JrF8xsbd7bf7ueKb0rfE5i60ORK19zHD4BUp87d7bBXbwW32Tw55TfeEJLfUjNYmg6K91MtzcIVhXlQR98/4V09+P9An/wCuZ/lXRl+HlCEqkla6svQ58dXU5xpx6M88H3R9K6XwlKifaEZwGJGATXND7o+lL3BHUdCO1eXh6zo1FO1z0q9L21PkvY9JaRUXczAAeprivEGoJf34ER3RxDAI7nv+HT8qznlkcbWkdl9CxNR114rMHXhyJWXU5sNgVRlzt3Y5FMjhFGWY7QPXNdb/AMI6P71UfDmju8y3k6lUX/VqR1PrXV10YHAxlDmqrfY58bjGp8tN7bi1S1DSbPUk23cKvjoccj8au0V7ibTujx5RUlZo5aXwHYscwz3EY9Mg/wAxWjpugjT4fIe5kuLftHKoIX6elbFFXOtOceWTuiIUYU5c0FZlWDT7W1YtDAiE9wuKtUUVjGKirJGzbbu2FZWo+HtP1Nt88IEh/jTgn8e9atFXGTi7p2IlCM1aSOVfwFZliVu7hR6cH+lWbTwXplswaQSTkdPMPH5CuhorV4iq1ZtmSwtJO6iNREjQIiqqgYAAxinUUVibmHJ4Q0mWV5Ggfc5LHEjdTViw8Pafplx51rEyybduS5PFaeM0taOrNqzehkqNNO6SuFYd14S028upLiVZPMkbc2HIGa3KKmM5Rd4uxU4RmrSVzFsfC2n6fdpcwLIJEzjLkitqiiiUpSd5McIRgrRVjJvvDenajdG4uYmaQgAkOR0+lRweE9Kt5o5Y4XDxsGU+Y3BFbWKAKpVZpcqehDo0272VwqKe3iuYzHNGsiHqrDINS0VmnY0aT0Zztx4J0yYkx+bAT2RuP1qr/wAIDa/8/k+Pov8AhXWUVssTVSspMxeFpN3cTnIfA+mR4Mhmlx2Z8D9MVtWljb6fAIbWJYk64UVZpKidWc/idy4UYQ+FWMvUPD1hqlwJ7uJmkC7chyOOT2+pqAeD9IRgwgfIOR+8b/Gtyimqs0rJ6CdGm3dxVxOnFVNR0231SAQ3aFkyGwCRz+FXKKhNp3RbimrNGD/whmkf88H/AO/jf41rWdnDYWqQW6lY0GFBOcVYoqpVJyVpO5MaUIO8VYMcVjX3hbTL9zI8HluerRnaa2aKmMpRd4uw5wjNWkrnKN4CtCflurgD0OD/AEp0XgSxQ/vbi4k9sgfyFdTRW31mrtzGX1Wje/KZlh4f07TZBJbW4Eo6OxJb8zU95pdpfEG4hDsBgN3FXKKwqfvfj19Top/u/g09DAk8I2jH5JZk9gQf50weELfPNxKR6cV0VFcjwVBu/KjpWMrLTmZk23hywt2DeWZWHdzn9K1FUKuAMCnUlb06UKa91WMZ1Jzd5O5n3WiWV7MZZ4yzkAZDEVHH4c0+ORXWJtykMPnPatWipdCm3zOKuNVqiVlJ2DFVb3T7e/RVuE3KpyBnvVqitJRUlZrQhNxd09TK/wCEc03/AJ4f+PGtCCCO2hWOIYRRgDNS0lTClCHwqxU6s5/E7hjIrLu/D9lduXMexz1ZDitWkonThUVpK4oTlB3i7HP/APCI2+f+PmbHpx/hVq18N2Nq4fY0rjoXOcfhWvRWMMHQg7qKuayxNWSs5MQAKABwBVfUP+PCf/rmf5VYqvqH/HhP/wBcz/Kt6nwP0MofEjzsfdH0re8O6db6hFcLcRhtpGD3FYI+6PpXT+D/ALt19Vr5rAxUq6Uldan0GNbjRbTs9Cy3hKzJ4eUD03VYtvD1hasHEZkYHILnOK1aK+gWFoxd1FHhvE1ZKzkwAxRRRXQYi0UUUAFFFFABRRRQAUUUUAFFFFABRRRQAUUUUAFFFFABRRRQAUUUUAFFFFABRRRQAUUUUAFFFFABRRRQAUUUUAFFFFABRRRQAUUUUAFFFFABRRRQAUUUUAFFFFABRRRQAUUUUAFFFFADagvv+PKf/rm38qKKip8L9Bw+JHno+6K6bwh0uvqv9aKK+by7/eI/M+hx/wDAl8jpaKKK+nPnQooooA//2Q==;" vertex="1" parent="1">
                    <mxGeometry x="362.19" y="280" width="115.61" height="20" as="geometry"/>
                </mxCell>
                <mxCell id="9" value="API" style="shape=image;verticalLabelPosition=bottom;verticalAlign=top;imageAspect=0;aspect=fixed;image=data:image/svg+xml,PHN2ZyB4bWxucz0iaHR0cDovL3d3dy53My5vcmcvMjAwMC9zdmciIHZpZXdCb3g9IjAgMCAzMiAzMiIgaWQ9Imljb24iPjxkZWZzPjxzdHlsZT4uY2xzLTF7ZmlsbDpub25lO308L3N0eWxlPjwvZGVmcz48dGl0bGU+YXBpPC90aXRsZT48cGF0aCB0cmFuc2Zvcm09InRyYW5zbGF0ZSgwIDApIiBkPSJNMjYsMjJhMy44NiwzLjg2LDAsMCwwLTIsLjU3bC0zLjA5LTMuMWE2LDYsMCwwLDAsMC02Ljk0TDI0LDkuNDNBMy44NiwzLjg2LDAsMCwwLDI2LDEwYTQsNCwwLDEsMC00LTQsMy44NiwzLjg2LDAsMCwwLC41NywybC0zLjEsMy4wOWE2LDYsMCwwLDAtNi45NCwwTDkuNDMsOEEzLjg2LDMuODYsMCwwLDAsMTAsNmE0LDQsMCwxLDAtNCw0LDMuODYsMy44NiwwLDAsMCwyLS41N2wzLjA5LDMuMWE2LDYsMCwwLDAsMCw2Ljk0TDgsMjIuNTdBMy44NiwzLjg2LDAsMCwwLDYsMjJhNCw0LDAsMSwwLDQsNCwzLjg2LDMuODYsMCwwLDAtLjU3LTJsMy4xLTMuMDlhNiw2LDAsMCwwLDYuOTQsMEwyMi41NywyNEEzLjg2LDMuODYsMCwwLDAsMjIsMjZhNCw0LDAsMSwwLDQtNFpNMjYsNGEyLDIsMCwxLDEtMiwyQTIsMiwwLDAsMSwyNiw0Wk00LDZBMiwyLDAsMSwxLDYsOCwyLDIsMCwwLDEsNCw2Wk02LDI4YTIsMiwwLDEsMSwyLTJBMiwyLDAsMCwxLDYsMjhabTEwLThhNCw0LDAsMSwxLDQtNEE0LDQsMCwwLDEsMTYsMjBabTEwLDhhMiwyLDAsMSwxLDItMkEyLDIsMCwwLDEsMjYsMjhaIi8+PHJlY3QgaGVpZ2h0PSIzMiIgd2lkdGg9IjMyIiBjbGFzcz0iY2xzLTEiLz48L3N2Zz4=;" vertex="1" parent="1">
                    <mxGeometry x="445" y="310" width="20" height="20" as="geometry"/>
                </mxCell>
                <mxCell id="19" style="edgeStyle=none;html=1;startArrow=none;startFill=0;fillColor=#f0a30a;strokeColor=#BD7000;strokeWidth=2;" edge="1" parent="1">
                    <mxGeometry relative="1" as="geometry">
                        <mxPoint x="179" y="670" as="targetPoint"/>
                        <mxPoint x="179" y="520" as="sourcePoint"/>
                    </mxGeometry>
                </mxCell>
                <mxCell id="6" value="" style="image;sketch=0;aspect=fixed;html=1;points=[];align=center;fontSize=12;image=img/lib/mscae/Certificate.svg;" vertex="1" parent="1">
                    <mxGeometry x="160.14" y="576" width="35.71" height="30" as="geometry"/>
                </mxCell>
                <mxCell id="23" style="edgeStyle=none;html=1;startArrow=classic;startFill=1;fillColor=#dae8fc;strokeColor=#6c8ebf;strokeWidth=2;" edge="1" parent="1">
                    <mxGeometry relative="1" as="geometry">
                        <mxPoint x="179" y="300" as="targetPoint"/>
                        <mxPoint x="179" y="420" as="sourcePoint"/>
                    </mxGeometry>
                </mxCell>
                <mxCell id="24" value="" style="image;aspect=fixed;html=1;points=[];align=center;fontSize=12;image=img/lib/azure2/other/Entra_Identity.svg;" vertex="1" parent="1">
                    <mxGeometry x="113" y="310" width="33.75" height="30" as="geometry"/>
                </mxCell>
                <mxCell id="25" value="" style="image;sketch=0;aspect=fixed;html=1;points=[];align=center;fontSize=12;image=img/lib/mscae/App_Registrations.svg;" vertex="1" parent="1">
                    <mxGeometry x="146.75" y="340" width="20" height="20" as="geometry"/>
                </mxCell>
                <mxCell id="26" value="" style="image;aspect=fixed;html=1;points=[];align=center;fontSize=12;image=img/lib/azure2/app_services/App_Services.svg;" vertex="1" parent="1">
                    <mxGeometry x="591" y="222" width="50" height="50" as="geometry"/>
                </mxCell>
                <mxCell id="27" value="API" style="shape=image;verticalLabelPosition=bottom;verticalAlign=top;imageAspect=0;aspect=fixed;image=data:image/svg+xml,PHN2ZyB4bWxucz0iaHR0cDovL3d3dy53My5vcmcvMjAwMC9zdmciIHZpZXdCb3g9IjAgMCAzMiAzMiIgaWQ9Imljb24iPjxkZWZzPjxzdHlsZT4uY2xzLTF7ZmlsbDpub25lO308L3N0eWxlPjwvZGVmcz48dGl0bGU+YXBpPC90aXRsZT48cGF0aCB0cmFuc2Zvcm09InRyYW5zbGF0ZSgwIDApIiBkPSJNMjYsMjJhMy44NiwzLjg2LDAsMCwwLTIsLjU3bC0zLjA5LTMuMWE2LDYsMCwwLDAsMC02Ljk0TDI0LDkuNDNBMy44NiwzLjg2LDAsMCwwLDI2LDEwYTQsNCwwLDEsMC00LTQsMy44NiwzLjg2LDAsMCwwLC41NywybC0zLjEsMy4wOWE2LDYsMCwwLDAtNi45NCwwTDkuNDMsOEEzLjg2LDMuODYsMCwwLDAsMTAsNmE0LDQsMCwxLDAtNCw0LDMuODYsMy44NiwwLDAsMCwyLS41N2wzLjA5LDMuMWE2LDYsMCwwLDAsMCw2Ljk0TDgsMjIuNTdBMy44NiwzLjg2LDAsMCwwLDYsMjJhNCw0LDAsMSwwLDQsNCwzLjg2LDMuODYsMCwwLDAtLjU3LTJsMy4xLTMuMDlhNiw2LDAsMCwwLDYuOTQsMEwyMi41NywyNEEzLjg2LDMuODYsMCwwLDAsMjIsMjZhNCw0LDAsMSwwLDQtNFpNMjYsNGEyLDIsMCwxLDEtMiwyQTIsMiwwLDAsMSwyNiw0Wk00LDZBMiwyLDAsMSwxLDYsOCwyLDIsMCwwLDEsNCw2Wk02LDI4YTIsMiwwLDEsMSwyLTJBMiwyLDAsMCwxLDYsMjhabTEwLThhNCw0LDAsMSwxLDQtNEE0LDQsMCwwLDEsMTYsMjBabTEwLDhhMiwyLDAsMSwxLDItMkEyLDIsMCwwLDEsMjYsMjhaIi8+PHJlY3QgaGVpZ2h0PSIzMiIgd2lkdGg9IjMyIiBjbGFzcz0iY2xzLTEiLz48L3N2Zz4=;" vertex="1" parent="1">
                    <mxGeometry x="606" y="309" width="20" height="20" as="geometry"/>
                </mxCell>
                <mxCell id="28" value="CA provider" style="text;html=1;align=center;verticalAlign=middle;whiteSpace=wrap;rounded=0;fontStyle=1" vertex="1" parent="1">
                    <mxGeometry x="571" y="278" width="90" height="19" as="geometry"/>
                </mxCell>
                <mxCell id="29" style="edgeStyle=none;html=1;startArrow=classic;startFill=1;fillColor=#f0a30a;strokeColor=#BD7000;strokeWidth=2;" edge="1" parent="1">
                    <mxGeometry relative="1" as="geometry">
                        <mxPoint x="615" y="355" as="targetPoint"/>
                        <mxPoint x="240" y="473" as="sourcePoint"/>
                        <Array as="points">
                            <mxPoint x="616" y="472"/>
                        </Array>
                    </mxGeometry>
                </mxCell>
            </root>
        </mxGraphModel>
    </diagram>
</mxfile>